<svg width="118" height="28" viewBox="0 0 118 28" fill="none" xmlns="http://www.w3.org/2000/svg">
<path d="M19.6389 0H15.3949L3.41185 12.7704V0H0V27.2354H3.41185V13.9276L16.2271 27.2354H20.5959L7.19817 13.2251L19.6389 0Z" fill="white"/>
<path d="M41.2344 14.093C42.3578 12.5638 42.8987 10.7454 42.8987 8.5963C42.8987 7.14981 42.6491 5.8273 42.1498 4.67011C41.6505 3.47159 40.9015 2.4797 39.8613 1.69447C38.8627 0.909228 37.6145 0.413296 36.1166 0.165326C35.7837 0.0826694 35.4093 0.0413335 35.0348 0.0413335C34.6603 0.0413335 34.3691 1.52588e-05 34.0778 1.52588e-05H23.2598V27.2354H26.63V17.1926H34.6603L39.5701 27.2354H43.4396L38.1554 16.4487C39.4452 15.9114 40.4854 15.1675 41.2344 14.093ZM26.6716 13.969V3.22362H33.9946C34.2443 3.22362 34.4939 3.22362 34.8268 3.26495C35.1596 3.30628 35.4509 3.3476 35.7005 3.38893C36.5743 3.59557 37.2816 3.96753 37.8225 4.5048C38.3634 5.04207 38.7795 5.66199 39.0292 6.4059C39.2788 7.14981 39.4036 7.85239 39.4036 8.63763C39.4036 9.38154 39.2788 10.1254 39.0292 10.8694C38.7795 11.6133 38.3634 12.2332 37.8225 12.7705C37.2816 13.3077 36.5743 13.6797 35.7005 13.8863C35.4093 13.9276 35.118 14.0103 34.8268 14.0103C34.5355 14.0516 34.2443 14.0516 33.9946 14.0516H26.6716V13.969Z" fill="white"/>
<path d="M54.9233 1.52588e-05L45.7695 27.2354H49.3062L51.4698 20.8708H63.2032L65.3669 27.2354H68.9035L59.7498 1.52588e-05H54.9233ZM52.4684 17.6885L57.2533 3.55424L62.0798 17.6885H52.4684Z" fill="white"/>
<path d="M80.8451 1.52588e-05L71.6914 27.2354H75.2281L77.3917 20.8708H89.1251L91.2887 27.2354H94.8254L85.6717 1.52588e-05H80.8451ZM78.3903 17.6885L83.1752 3.55424L88.0017 17.6885H78.3903Z" fill="white"/>
<path d="M116.46 15.002C115.711 14.0101 114.629 13.3489 113.381 12.8529C114.213 12.3983 114.92 11.8611 115.503 11.0758C116.252 9.95996 116.626 8.67878 116.626 7.19096C116.626 5.95111 116.335 4.75259 115.711 3.67805C115.087 2.60352 114.213 1.6943 113.048 1.03304C111.883 0.37179 110.468 0.041153 108.846 0.041153H98.1523V27.2765H109.761C111.425 27.2765 112.882 26.9459 114.13 26.326C115.336 25.6647 116.293 24.7968 116.959 23.6396C117.625 22.4824 117.958 21.1186 117.958 19.5068C117.958 17.7297 117.458 16.2419 116.46 15.002ZM101.606 3.18211H108.804C110.094 3.18211 111.134 3.55407 111.925 4.29798C112.715 5.04189 113.131 5.99244 113.131 7.19096C113.131 8.05885 112.923 8.80276 112.549 9.42269C112.174 10.0426 111.633 10.5386 110.968 10.8692C110.302 11.1998 109.595 11.4064 108.762 11.4064H101.564V3.18211H101.606ZM113.755 21.8625C113.298 22.5238 112.674 23.061 111.883 23.433C111.092 23.8049 110.177 24.0116 109.178 24.0116H101.606V14.5474H109.553C110.51 14.5474 111.384 14.754 112.091 15.2087C112.84 15.6633 113.422 16.2419 113.839 16.9444C114.255 17.6884 114.463 18.5149 114.463 19.4241C114.463 20.3747 114.213 21.2013 113.755 21.8625Z" fill="white"/>
</svg>
