<svg width="118" height="20" viewBox="0 0 118 20" fill="none" xmlns="http://www.w3.org/2000/svg">
<path d="M7.57205 19.9999C6.2406 19.9999 5.03397 19.7519 3.99377 19.2973C2.91196 18.8427 2.03819 18.1815 1.37247 17.3549C0.665133 16.487 0.249055 15.4951 0.0410156 14.3379L2.82874 13.9247C3.12 15.0405 3.70251 15.9084 4.61789 16.5697C5.53326 17.2309 6.57346 17.5202 7.78009 17.5202C8.52903 17.5202 9.19476 17.3962 9.86049 17.1483C10.4846 16.9003 10.9839 16.5697 11.3584 16.1564C11.7328 15.7018 11.9409 15.2058 11.9409 14.5859C11.9409 14.2553 11.8993 13.966 11.7744 13.718C11.6496 13.47 11.4832 13.2221 11.3168 13.0568C11.1087 12.8501 10.8591 12.6848 10.5678 12.5608C10.2766 12.4368 9.9437 12.3128 9.61084 12.1889L4.86754 10.7837C4.40985 10.6597 3.95216 10.4531 3.45286 10.2464C2.95357 10.0398 2.53749 9.75049 2.12141 9.37854C1.70533 9.00658 1.41408 8.59329 1.16443 8.05602C0.914781 7.51876 0.789959 6.89884 0.789959 6.15493C0.789959 5.03907 1.08121 4.04719 1.66372 3.26195C2.24623 2.47671 3.03679 1.85678 4.03538 1.48482C5.03397 1.07154 6.15738 0.864899 7.40562 0.864899C8.65385 0.864899 9.77727 1.11287 10.7759 1.52615C11.7745 1.93944 12.6066 2.55936 13.2307 3.3446C13.8965 4.12984 14.3541 5.12172 14.6038 6.23758L11.7328 6.73353C11.608 6.03094 11.3168 5.45234 10.9007 4.9564C10.4846 4.46046 9.98531 4.08851 9.36119 3.79921C8.73707 3.50991 8.07135 3.38593 7.36401 3.38593C6.65668 3.38593 6.03256 3.46859 5.49166 3.67523C4.90914 3.88187 4.45146 4.2125 4.11859 4.62578C3.78573 5.03906 3.6193 5.49367 3.6193 5.98961C3.6193 6.48555 3.78573 6.89883 4.07698 7.22946C4.36824 7.56008 4.74271 7.80806 5.2004 7.97338C5.65808 8.13869 6.07417 8.304 6.53185 8.42799L9.9437 9.37854C10.3598 9.50252 10.8591 9.66784 11.4 9.87448C11.9409 10.0811 12.4818 10.3704 12.9811 10.701C13.4804 11.073 13.8965 11.5276 14.2293 12.1475C14.5622 12.7261 14.7286 13.47 14.7286 14.3793C14.7286 15.2885 14.5206 16.1151 14.1461 16.8176C13.7716 17.5202 13.2723 18.0988 12.6066 18.5947C11.9409 19.0494 11.1919 19.4213 10.3182 19.6693C9.4444 19.8759 8.52903 19.9999 7.57205 19.9999Z" fill="white"/>
<path d="M21.677 19.9586V12.0235L15.1445 0.782227H18.4316L23.0916 8.84125L27.7517 0.782227H31.0388L24.5063 12.0235V19.9586H21.677Z" fill="white"/>
<path d="M39.1111 19.9999C37.7797 19.9999 36.573 19.7519 35.5328 19.2973C34.451 18.8427 33.5773 18.1815 32.9115 17.3549C32.2042 16.487 31.7881 15.4951 31.5801 14.3379L34.3678 13.9247C34.6591 15.0405 35.2416 15.9084 36.1569 16.5697C37.0723 17.2309 38.1125 17.5202 39.3191 17.5202C40.0681 17.5202 40.7338 17.3962 41.3995 17.1483C42.0237 16.9003 42.523 16.5697 42.8974 16.1564C43.2719 15.7431 43.4799 15.2058 43.4799 14.5859C43.4799 14.2553 43.4383 13.966 43.3135 13.718C43.1887 13.47 43.0223 13.2221 42.8558 13.0568C42.6478 12.8501 42.3981 12.6848 42.1069 12.5608C41.8156 12.4368 41.4828 12.3128 41.1499 12.1889L36.4066 10.7837C35.9489 10.6597 35.4912 10.4531 34.9919 10.2464C34.4926 10.0398 34.0766 9.75049 33.6605 9.37854C33.2444 9.00658 32.9531 8.59329 32.7035 8.05602C32.4538 7.51876 32.329 6.89884 32.329 6.15493C32.329 5.03907 32.6203 4.04719 33.2028 3.26195C33.7853 2.47671 34.5758 1.85678 35.5744 1.48482C36.573 1.07154 37.6964 0.864899 38.9447 0.864899C40.1929 0.864899 41.3163 1.11287 42.3149 1.52615C43.3135 1.93944 44.1457 2.55936 44.7698 3.3446C45.4355 4.12984 45.8932 5.12172 46.1428 6.23758L43.2719 6.73353C43.1471 6.03094 42.8558 5.45234 42.4397 4.9564C42.0237 4.46046 41.5244 4.08851 40.9002 3.79921C40.2761 3.50991 39.6104 3.38593 38.9031 3.38593C38.1957 3.38593 37.5716 3.46859 37.0307 3.67523C36.4898 3.88187 35.9905 4.2125 35.6577 4.62578C35.3248 5.03906 35.1584 5.49367 35.1584 5.98961C35.1584 6.48555 35.3248 6.89883 35.616 7.22946C35.9073 7.56008 36.2818 7.80806 36.7395 7.97338C37.1971 8.13869 37.6132 8.304 38.0709 8.42799L41.4828 9.37854C41.8988 9.50252 42.3981 9.66784 42.939 9.87448C43.4799 10.0811 44.0208 10.3704 44.5201 10.701C45.0194 11.073 45.4355 11.5276 45.7684 12.1475C46.1012 12.7261 46.2677 13.47 46.2677 14.3793C46.2677 15.2885 46.0596 16.1151 45.6852 16.8176C45.3107 17.5202 44.8114 18.0988 44.1457 18.5947C43.4799 19.0494 42.731 19.4213 41.8572 19.6693C40.9419 19.8759 40.0681 19.9999 39.1111 19.9999Z" fill="white"/>
<path d="M54.1732 19.9584V3.42706H47.7656V0.823364H63.4102V3.42706H57.0026V19.9584H54.1732Z" fill="white"/>
<path d="M65.5312 19.9586V0.782227H77.8472V3.38591H68.319V8.75859H77.8472V11.3623H68.319V17.2722H77.8472V19.8759H65.5312V19.9586Z" fill="white"/>
<path d="M81.0508 19.9586V0.782227H83.5889L90.579 15.2058L97.5275 0.782227H100.066V19.9172H97.4027V6.81615L91.1615 19.9586H89.8717L83.6305 6.81615V19.9586H81.0508Z" fill="white"/>
<path d="M110.844 19.9999C109.512 19.9999 108.305 19.7519 107.265 19.2973C106.183 18.8427 105.31 18.1815 104.644 17.3549C103.937 16.487 103.521 15.4951 103.312 14.3379L106.1 13.9247C106.391 15.0405 106.974 15.9084 107.889 16.5697C108.805 17.1896 109.845 17.5202 111.052 17.5202C111.801 17.5202 112.466 17.3962 113.132 17.1483C113.756 16.9003 114.255 16.5697 114.63 16.1564C115.004 15.7018 115.212 15.2058 115.212 14.5859C115.212 14.2553 115.171 13.966 115.046 13.718C114.921 13.47 114.755 13.2221 114.588 13.0568C114.38 12.8501 114.131 12.6848 113.839 12.5608C113.548 12.4368 113.215 12.3128 112.882 12.1889L108.139 10.7837C107.681 10.6597 107.224 10.4531 106.724 10.2464C106.225 10.0398 105.809 9.75049 105.393 9.37854C104.977 9.00658 104.686 8.59329 104.436 8.05602C104.186 7.51876 104.061 6.89884 104.061 6.15493C104.061 5.03907 104.353 4.04719 104.935 3.26195C105.518 2.47671 106.308 1.85678 107.307 1.48482C108.305 1.07154 109.429 0.864899 110.677 0.864899C111.925 0.864899 113.049 1.11287 114.047 1.52615C115.046 1.93944 115.878 2.55936 116.502 3.3446C117.168 4.12984 117.626 5.12172 117.875 6.23758L115.004 6.73353C114.879 6.03094 114.588 5.45234 114.172 4.9564C113.756 4.46046 113.257 4.08851 112.633 3.79921C112.009 3.50991 111.343 3.38593 110.635 3.38593C109.928 3.38593 109.304 3.46859 108.763 3.67523C108.222 3.88187 107.723 4.2125 107.39 4.62578C107.057 5.03906 106.891 5.49367 106.891 5.98961C106.891 6.48555 107.057 6.89883 107.348 7.22946C107.64 7.56008 108.014 7.80806 108.472 7.97338C108.93 8.13869 109.346 8.304 109.803 8.42799L113.215 9.37854C113.631 9.50252 114.131 9.66784 114.671 9.87448C115.212 10.0811 115.753 10.3704 116.253 10.701C116.752 11.0317 117.168 11.5276 117.501 12.1475C117.834 12.7261 118 13.47 118 14.3793C118 15.2885 117.792 16.1151 117.418 16.8176C117.043 17.5202 116.544 18.0988 115.878 18.5947C115.212 19.0494 114.463 19.4213 113.59 19.6693C112.716 19.8759 111.801 19.9999 110.844 19.9999Z" fill="white"/>
</svg>
