<svg width="18" height="18" viewBox="0 0 18 18" fill="none" xmlns="http://www.w3.org/2000/svg">
<path d="M13.4444 13.4444C12.4626 13.4444 11.6667 14.2404 11.6667 15.2222C11.6667 16.2041 12.4626 17 13.4444 17C14.4263 17 15.2222 16.2041 15.2222 15.2222C15.2222 14.2404 14.4263 13.4444 13.4444 13.4444ZM13.4444 13.4444H6.59462C6.18479 13.4444 5.97949 13.4444 5.81076 13.3715C5.66192 13.3072 5.53278 13.2037 5.4387 13.0716C5.33325 12.9236 5.29083 12.7256 5.20688 12.3338L3.0191 2.12413C2.93319 1.72323 2.88966 1.523 2.78299 1.37326C2.6889 1.2412 2.55979 1.13726 2.41095 1.07293C2.24218 1 2.03803 1 1.62803 1H1M3.66667 3.66667H15.1095C15.7511 3.66667 16.0716 3.66667 16.2869 3.80032C16.4755 3.91739 16.6136 4.10099 16.6738 4.31467C16.7426 4.55861 16.6542 4.86663 16.4764 5.48307L15.2457 9.74974C15.1393 10.1183 15.0862 10.3023 14.9783 10.439C14.8831 10.5597 14.7575 10.6542 14.6152 10.7122C14.4543 10.7778 14.2632 10.7778 13.8819 10.7778H5.20486M5.44444 17C4.4626 17 3.66667 16.2041 3.66667 15.2222C3.66667 14.2404 4.4626 13.4444 5.44444 13.4444C6.42628 13.4444 7.22222 14.2404 7.22222 15.2222C7.22222 16.2041 6.42628 17 5.44444 17Z" stroke="#F6F6F8" stroke-width="2" stroke-linecap="round" stroke-linejoin="round"/>
</svg>
