<svg width="38" height="38" viewBox="0 0 38 38" fill="none" xmlns="http://www.w3.org/2000/svg">
<rect width="38" height="38" rx="19" fill="#F6F6F8"/>
<path fill-rule="evenodd" clip-rule="evenodd" d="M11 22.8938V27L15.1062 27L22.8972 19.209L18.6124 15.2813L11 22.8938ZM19.3202 14.5736L23.605 18.5013L26.2635 15.8427L26.2644 15.8418C26.6704 15.4359 26.8734 15.2328 26.9495 14.9986C27.0165 14.7924 27.0165 14.5703 26.9496 14.3641C26.8734 14.1297 26.67 13.9264 26.2635 13.5199L24.4775 11.7338C24.0727 11.3291 23.8699 11.1262 23.636 11.0502C23.4298 10.9833 23.2077 10.9833 23.0015 11.0502C22.7675 11.1263 22.5644 11.3293 22.1591 11.7347L22.1573 11.7365L19.3202 14.5736Z" fill="#AEAEAE"/>
</svg>
