<svg width="48" height="48" viewBox="0 0 48 48" fill="none" xmlns="http://www.w3.org/2000/svg">
<rect width="48" height="48" rx="24" fill="#F6F6F8"/>
<path fill-rule="evenodd" clip-rule="evenodd" d="M24 33C28.9706 33 33 28.9706 33 24C33 19.0294 28.9706 15 24 15C19.0294 15 15 19.0294 15 24C15 28.9706 19.0294 33 24 33ZM20.483 22.8173C20.8038 23.1399 21.2274 23.3002 21.6493 23.3002H21.651C22.0729 23.3002 22.4948 23.1399 22.8173 22.8173C23.4606 22.1741 23.4606 21.1263 22.8173 20.4831C22.174 19.8398 21.1263 19.8398 20.483 20.4831C19.8398 21.1263 19.8398 22.1741 20.483 22.8173ZM21.0984 21.1002C21.2501 20.9485 21.4506 20.8718 21.6493 20.8718C21.8498 20.8718 22.0485 20.9485 22.2002 21.1002C22.5035 21.4035 22.5035 21.8986 22.2002 22.202C21.8969 22.5053 21.4018 22.5053 21.0984 22.202C20.7951 21.8986 20.7951 21.4035 21.0984 21.1002ZM26.3491 28.0001C25.9272 28.0001 25.5036 27.8397 25.1828 27.5172C24.5396 26.8739 24.5396 25.8262 25.1828 25.1829C25.8261 24.5396 26.8738 24.5396 27.5171 25.1829C28.1604 25.8262 28.1604 26.8739 27.5171 27.5172C27.1946 27.8397 26.7727 28.0001 26.3491 28.0001ZM25.7982 26.9018C26.1015 27.2051 26.5966 27.2051 26.9 26.9018C27.2033 26.5985 27.2033 26.1034 26.9 25.8C26.5966 25.4967 26.1015 25.4967 25.7982 25.8C25.4949 26.1034 25.4949 26.5985 25.7982 26.9018ZM20.8535 27.8536L27.8535 20.8536L27.1464 20.1464L20.1464 27.1464L20.8535 27.8536Z" fill="#BEBEBE"/>
</svg>
