<svg width="30" height="30" viewBox="0 0 20 18" fill="none" xmlns="http://www.w3.org/2000/svg">
<path d="M9.14286 14.5385H3.71429V9.61539H9.14286V14.5385Z" fill="#A0A0A0"/>
<path d="M9.14286 7.76923H3.71429V3.46154H9.14286V7.76923Z" fill="#A0A0A0"/>
<path d="M16.6071 7.76923H11.1786V3.46154H16.6071V7.76923Z" fill="#A0A0A0"/>
<path d="M11.1786 14.5385V9.61539H16.6071V14.5385H11.1786Z" fill="#A0A0A0"/>
<path d="M1 6.53846V1H7.10714H7.78571M13.2143 1H19.3214M20 1H19.3214M12.5357 1H19.3214M19.3214 1V6.53846M19.3214 11.4615V17H12.5357M7.78571 17H1V11.4615M3.71429 14.5385H9.14286V9.61538H3.71429V14.5385ZM3.71429 7.76923H9.14286V3.46154H3.71429V7.76923ZM11.1786 7.76923H16.6071V3.46154H11.1786V7.76923ZM11.1786 9.61538V14.5385H16.6071V9.61538H11.1786Z" stroke="#A0A0A0"/>
</svg>
